<?xml version="1.0" ?><!DOCTYPE svg  PUBLIC '-//W3C//DTD SVG 1.1//EN'  'http://www.w3.org/Graphics/SVG/1.1/DTD/svg11.dtd'><svg enable-background="new 0 0 500 500" height="500px" id="cow" version="1.1" viewBox="0 0 500 500" width="500px" xml:space="preserve" xmlns="http://www.w3.org/2000/svg" xmlns:xlink="http://www.w3.org/1999/xlink"><g><g><path d="M443.288,171.585c-7.248-4.49-23.128-17.953-26.24-23.479c2.417-3.109,7.943-7.943,6.906-14.503     c-0.41-2.594-2.604-3.509-5.297-3.29c4.503-4.948,7.601-10.94,5.141-13.504c-5.652,5.474-15.075,12.424-22.557,14.309     c-7.485,1.885,3.715-21.087-5.234-11.305c-3.575,3.904-8.806,7.456-13.504,10.162c-3.176-1.736-6.69-3.676-10.341-5.349     c-8.284-3.798-8.284,10.013-6.215,17.264c-4.143,0.345-41.088,10.013-64.563,15.191c-15.883-8.284-75.619,4.834-95.989,8.632     c-20.372,3.798-43.504,3.453-43.504,3.453s0,0-22.443-5.178c-20.967-4.838-41.632-0.337-59.745,1.402h-2.404     c0,0-33.492,0.344-33.837,33.144c-0.345,32.8,8.195,74.58,8.587,81.831c0.39,7.251,0.39,7.251,0.39,7.251     s-2.76,27.622-5.524,36.598c-2.762,8.98-6.255,13.467-6.255,13.467s-1.341,5.522,4.874,0c2.008-1.784,4.519-7.928,6.981-15.668     l-0.409-3.945c-0.816-7.897,3.363-20.539,8.202-35.181c0.589-1.78,1.186-3.595,1.782-5.412     c-0.772-7.319-7.579-20.764-7.579-30.312c0-9.61-6.309-25.841-2.461-37.579c0.818-2.499,1.32-4.667,1.696-6.596     c3.711,16.47,12.39,38.123,14.341,43.516c2.873,7.937,4.379,40.399,2.652,46.269c-1.727,5.871-7.251,20.718-8.63,25.189     c-1.382,4.474,11.049,40.069,11.049,45.592c0,5.526-1.333,17.425,5.523,20.37c6.858,2.949,28.312,0.348,27.625-1.783     c-0.692-2.131-22.102-36.887-24.74-43.446c-2.28-5.662,6.999-25.461,9.581-30.775c5.162,0.893,10.794,3.365,13.431,3.846     c3.796,0.689,0.294,2.63,1.673,7.101c1.382,4.475,5.923-6.411,5.923-6.411s13.12-1.036,16.574-2.07     c3.454-1.036,2.086,1.037,5.149,5.478c3.663,5.308,3.149-2.854,3.149-8.58c3.922-1.807,7.807-5.121,11.29-8.811     c5.191-0.119,12.031-1.35,15.629-1.556c10.647-0.605,82.521-6.904,89.425-9.321c1.036,4.834,5.873,29.694,5.873,29.694     s0,0,0.689,3.109c0.691,3.105,0.344,22.095-0.689,25.548c-1.036,3.454-3.801,6.56-2.762,9.321     c1.034,2.765,4.832,7.251,5.179,14.503c-4.834,4.489,0,10.704,0,10.704s26.585,1.726,32.456,1.667     c5.867-0.062-1.729-8.573-8.986-13.337c-7.257-4.761-7.589-8.7-7.589-8.7s0,0-2.417-4.489c-2.417-4.49-0.345-32.456,1.728-37.652     c2.07-5.194,5.179-21.735,8.977-32.44c16.917,3.109,35.909-28.654,40.399-32.455c4.486-3.798,16.225-12.083,19.333-25.896     c3.109-13.808,20.025-23.824,28.313-30.728c4.486,2.805,26.167-0.347,38.688-0.492c2.894-0.034,5.299,0.092,6.886,0.492     c6.906,1.726,18.992,1.037,27.624-3.801C455.718,187.81,451.231,179.181,443.288,171.585z" fill="#222222"/><path d="M293.555,285.864c-1.771,0.575-3.555,0.901-5.339,0.901c-0.565,0-1.125-0.03-1.679-0.099     c-1.953,5.692-3.706,12.812-5.259,19.128c-1.338,5.437-2.494,10.136-3.453,12.55c-2.171,5.446-3.894,32.853-1.777,36.782     l2.417,4.49l0.092,0.19l0.024,0.193c0.003,0.034,0.465,3.315,6.372,7.43c-0.356-1.805-1.153-3.991-2.562-6.636     c-8.632-16.229,3.109-33.492,3.798-49.028C286.479,305.334,289.781,295.354,293.555,285.864z" fill="#222222"/><path d="M72.082,365.924c0.023-0.87,0.044-1.67,0.044-2.368c0-2.263-2.479-10.787-4.877-19.035     c-4.227-14.523-6.933-24.241-6.126-26.858c0.601-1.949,1.999-5.896,3.477-10.068c1.959-5.532,4.178-11.799,5.152-15.108     c1.417-4.828,0.495-29.733-1.588-41.327c-0.046,6.145-0.72,12.734-2.604,18.829c-5.871,18.989-13.466,37.951-12.43,47.977     c1.037,10.031,1.037,10.031,1.037,10.031s3.452,52.48,4.834,53.517c0.82,0.615,8.583,1.474,14.75-1.258     C71.812,376.054,71.966,370.244,72.082,365.924z" fill="#222222"/></g><g/><g/><g/><g/><g/><g/></g></svg>